<svg width="4145" height="892" viewBox="0 0 4145 892" fill="none" xmlns="http://www.w3.org/2000/svg">
<g clip-path="url(#clip0_1_40)">
<path d="M1715.47 751.042L1588.58 287H1645.68L1742.66 664.941H1747.19L1845.98 287H1909.42L2008.22 664.941H2012.75L2109.72 287H2166.82L2039.94 751.042H1981.93L1879.52 381.259H1875.89L1773.48 751.042H1715.47Z" fill="#3D7DAB"/>
<path d="M2191.37 751.042H2132.46L2302.85 287H2360.86L2531.25 751.042H2472.33L2333.67 360.413H2330.04L2191.37 751.042Z" fill="#3D7DAB"/>
<path d="M2531.25 287L2669.01 677.629H2674.45L2812.21 287H2871.12L2700.73 751.042H2642.73L2472.34 287H2531.25Z" fill="#3D7DAB"/>
<path d="M2922.32 751.042V519.021V287H3202.38V336.848H2978.51V493.644H3187.87V543.492H2978.51V701.194H3202.38V751.042H2922.32Z" fill="#3D7DAB"/>
<path d="M1715.47 751.042L1588.58 287H1645.68L1742.66 664.941H1747.19L1845.98 287H1909.42L2008.22 664.941H2012.75L2109.72 287H2166.82L2039.94 751.042H1981.93L1879.52 381.259H1875.89L1773.48 751.042H1715.47Z" fill="#3D7DAB"/>
<path d="M1494.38 287L1621.27 751.042L1564.17 751.042L1467.19 373.102L1462.66 373.102L1363.87 751.042L1300.43 751.042L1201.64 373.102L1197.1 373.102L1100.13 751.042L1043.03 751.042L1169.91 287L1227.92 287L1330.33 656.784L1333.96 656.784L1436.38 287L1494.38 287Z" fill="#224055"/>
<path d="M768.193 701.194V287H712V751.042L980.203 751.076L993.5 701.194H768.193Z" fill="#224055"/>
<path fill-rule="evenodd" clip-rule="evenodd" d="M387 751.042V287H652.555V336.848H443.193V493.644H638V543.492H443.193V701.194H652.555V751.042H387Z" fill="#224055"/>
<path d="M0.807343 751.042V287H57V493.644H271.621V287H327.814V751.042H271.621V543.492H57V751.042H0.807343Z" fill="#224055"/>
<path d="M4002.1 249.5L3883.6 338.9L3794.4 403.1C3784.57 410.11 3774.39 416.618 3763.9 422.6L3743 434.5C3709.18 453.8 3672.37 467.319 3634.1 474.5L3540.8 492.1L3508 302.4L3679.4 205.8L4002.1 249.5Z" fill="#012B35"/>
<path d="M3998.5 262.3C3998.5 262.3 3888.5 305.7 3807 377.2C3717.7 455.6 3732.2 544.9 3732.2 544.9L3624.7 517.6L3717.7 282.4L3952.9 218.5L3998.5 262.3Z" fill="#013444"/>
<path d="M3991.2 253.2C3991.2 253.2 3846.6 291.1 3765.1 362.6C3675.7 441 3686.7 523.1 3686.7 523.1L3579.1 495.7L3672.1 260.5L3949.2 231.3L3991.2 253.2Z" fill="#013E56"/>
<path d="M3932.8 260.5C3932.8 260.5 3804.6 278.3 3723.1 349.8C3633.8 428.2 3626.5 541.3 3626.5 541.3L3520.7 503L3613.7 267.8L3890.9 238.6L3932.8 260.5Z" fill="#024566"/>
<path d="M4049.5 692.6C4060.5 789.3 4076.9 813 4076.9 813L3735.9 721.8L3754.1 472L3900 411.8L3998.5 451.9C3998.5 451.9 4041.5 621.4 4049.5 692.6Z" fill="#052E47"/>
<path d="M4049.5 692.6C4049.5 692.6 4041.4 557.1 4031.3 462.9C4025.5 408.9 4002.1 247.7 4002.1 247.7L3993 264.1L3883.6 338.9C3883.6 338.9 3833.9 372.1 3816.3 381.2C3728.6 426.4 3693.7 431.7 3650.2 433.7C3628.8 434.7 3564.5 433.7 3564.5 433.7L3546.4 376C3540 412.7 3544.4 441 3544.4 441L3555.4 464.7L3539 484.8L3564.5 563.2L3553.5 632.5L3489.7 716.3L3528 765.6L3593.7 787.4L3677.5 802L3746.8 822.1L3832.5 833H3960.2L4076.9 813L4065.1 798.9C4042.81 772.037 4025.81 741.193 4015 708C4011.28 696.565 4008.8 684.764 4007.6 672.8L4000.8 605.1C4000.65 603.402 4000.11 601.762 3999.23 600.305C3998.35 598.848 3997.14 597.615 3995.7 596.7C3988.2 592 3973.6 582.9 3967.5 579.6C3941.5 565.3 3861.1 527.3 3861.1 527.3C3859.64 526.589 3858.4 525.481 3857.53 524.102C3856.67 522.723 3856.2 521.128 3856.2 519.5V490.5C3856.2 490.233 3856.25 489.968 3856.36 489.724C3856.47 489.479 3856.63 489.26 3856.83 489.08C3857.02 488.901 3857.26 488.766 3857.51 488.683C3857.77 488.6 3858.03 488.572 3858.3 488.6C3880.6 491.2 3902.3 496.9 3923.4 504.6C3969.3 521.2 4003.6 535.4 4003.6 535.4C4005.33 536.109 4006.84 537.273 4007.97 538.77C4009.1 540.266 4009.8 542.038 4010 543.9L4021.6 658.2C4021.93 661.632 4023.37 664.863 4025.7 667.4C4031.5 673.8 4049.5 692.6 4049.5 692.6Z" fill="url(#paint0_linear_1_40)"/>
<path d="M4076.9 813C4076.9 813 3768.7 743.7 3845.3 621.5C3850.8 612.7 3842.9 606.8 3826.3 603.2C3754.5 587.3 3520.7 612.4 3520.7 612.4L3601 813C3601 813 3770.7 860 3907.3 847.6C4027.6 836.7 4076.9 813 4076.9 813Z" fill="url(#paint1_linear_1_40)"/>
<path d="M4076.9 813C4076.9 813 3696.5 779.6 3774.2 577.8C3792.4 530.3 3502.5 603.3 3502.5 603.3L3601 813C3601 813 3770.7 860 3907.3 847.6C4027.6 836.7 4076.9 813 4076.9 813Z" fill="url(#paint2_linear_1_40)"/>
<path d="M4076.9 813C4076.9 813 3660.2 832.7 3703.1 543.1C3710.4 493.9 3498.8 574.1 3498.8 574.1L3601 813C3601 813 3763.4 861.9 3900 849.4C4020.3 838.5 4076.9 813 4076.9 813Z" fill="url(#paint3_linear_1_40)"/>
<mask id="mask0_1_40" style="mask-type:luminance" maskUnits="userSpaceOnUse" x="3400" y="5" width="739" height="882">
<path d="M4076.9 813C3570 896.9 3435 284.2 3883.6 253.2V338.9L4138.9 171.1L3885.4 5.2V90.9C3622.8 87.3 3411 233.3 3400.4 497.5C3391.3 723.6 3540.6 837 3653.8 867.7C3889.1 931.5 4076.9 813 4076.9 813Z" fill="white"/>
</mask>
<g mask="url(#mask0_1_40)">
<mask id="mask1_1_40" style="mask-type:luminance" maskUnits="userSpaceOnUse" x="3395" y="0" width="749" height="892">
<path d="M4143.9 0.199997H3395V891.55H4143.9V0.199997Z" fill="white"/>
</mask>
<g mask="url(#mask1_1_40)">
<rect x="3395" y="-1.52588e-05" width="749.28" height="891.84" fill="url(#paint4_linear_1_40)"/>
</g>
</g>
<path d="M3929.9 813H3917.3L3911 824L3917.3 834.9H3929.9L3936.2 824L3929.9 813Z" fill="#D9F2FF"/>
<path d="M3656.8 583.3H3599.9L3571.5 632.5L3599.9 681.7H3656.8L3685.2 632.5L3656.8 583.3Z" fill="#D9F2FF"/>
<path d="M3580.4 510.3H3540.4L3520.4 545L3540.4 579.6H3580.4L3600.5 545L3580.4 510.3Z" fill="#D9F2FF"/>
<path d="M3579.5 452H3551.1L3536.9 476.6L3551.1 501.2H3579.5L3593.7 476.6L3579.5 452Z" fill="#D9F2FF"/>
<path d="M3731.3 650.7H3689.2L3668.1 687.2L3689.2 723.7H3731.3L3752.4 687.2L3731.3 650.7Z" fill="#D9F2FF"/>
<path d="M3637.4 693H3600.8L3582.4 724.8L3600.8 756.5H3637.4L3655.7 724.8L3637.4 693Z" fill="#D9F2FF"/>
<path d="M3730 754.3H3710.9L3701.3 770.9L3710.9 787.5H3730L3739.6 770.9L3730 754.3Z" fill="#D9F2FF"/>
<path d="M3771.9 729.1H3747.7L3735.6 750.1L3747.7 771.1H3771.9L3784 750.1L3771.9 729.1Z" fill="#D9F2FF"/>
<path d="M3818.4 754.7H3789.9L3775.7 779.3L3789.9 803.9H3818.4L3832.6 779.3L3818.4 754.7Z" fill="#D9F2FF"/>
<path d="M3534 430.1H3514L3504 447.4L3514 464.7H3534L3544 447.4L3534 430.1Z" fill="#D9F2FF"/>
<path d="M3899.6 792.6H3880.4L3870.9 809.2L3880.4 825.8H3899.6L3909.2 809.2L3899.6 792.6Z" fill="#D9F2FF"/>
</g>
<defs>
<linearGradient id="paint0_linear_1_40" x1="3654.54" y1="761.71" x2="4055.29" y2="335.1" gradientUnits="userSpaceOnUse">
<stop offset="0.33" stop-color="#8DD4FF"/>
<stop offset="0.34" stop-color="#89D1FE"/>
<stop offset="0.44" stop-color="#5BA9F0"/>
<stop offset="0.54" stop-color="#378AE5"/>
<stop offset="0.63" stop-color="#1D73DD"/>
<stop offset="0.71" stop-color="#0D66D8"/>
<stop offset="0.77" stop-color="#0861D6"/>
</linearGradient>
<linearGradient id="paint1_linear_1_40" x1="3798.8" y1="856.19" x2="3798.8" y2="604.37" gradientUnits="userSpaceOnUse">
<stop offset="0.16" stop-color="#8DD4FF"/>
<stop offset="0.79" stop-color="#0861D6"/>
</linearGradient>
<linearGradient id="paint2_linear_1_40" x1="3789.68" y1="857.12" x2="3789.68" y2="569.15" gradientUnits="userSpaceOnUse">
<stop offset="0.16" stop-color="#8DD4FF"/>
<stop offset="0.79" stop-color="#0861D6"/>
</linearGradient>
<linearGradient id="paint3_linear_1_40" x1="3787.86" y1="859.81" x2="3787.86" y2="535.47" gradientUnits="userSpaceOnUse">
<stop offset="0.16" stop-color="#8DD4FF"/>
<stop offset="0.81" stop-color="#3461CC"/>
</linearGradient>
<linearGradient id="paint4_linear_1_40" x1="3926.5" y1="151.5" x2="3874.5" y2="892" gradientUnits="userSpaceOnUse">
<stop stop-color="#6FBDFF"/>
<stop offset="1" stop-color="#00131F"/>
</linearGradient>
<clipPath id="clip0_1_40">
<rect width="4145" height="892" fill="white"/>
</clipPath>
</defs>
</svg>
