<svg width="4075" height="892" viewBox="0 0 4075 892" fill="none" xmlns="http://www.w3.org/2000/svg">
<g clip-path="url(#clip0_3_33)">
<path d="M607.1 249.5L488.6 338.9L399.4 403.1C389.568 410.11 379.389 416.618 368.9 422.6L348 434.5C314.179 453.8 277.373 467.319 239.1 474.5L145.8 492.1L113 302.4L284.4 205.8L607.1 249.5Z" fill="#012B35"/>
<path d="M603.5 262.3C603.5 262.3 493.5 305.7 412 377.2C322.7 455.6 337.2 544.9 337.2 544.9L229.7 517.6L322.7 282.4L557.9 218.5L603.5 262.3Z" fill="#013444"/>
<path d="M596.2 253.2C596.2 253.2 451.6 291.1 370.1 362.6C280.7 441 291.7 523.1 291.7 523.1L184.1 495.7L277.1 260.5L554.2 231.3L596.2 253.2Z" fill="#013E56"/>
<path d="M537.8 260.5C537.8 260.5 409.6 278.3 328.1 349.8C238.8 428.2 231.5 541.3 231.5 541.3L125.7 503L218.7 267.8L495.9 238.6L537.8 260.5Z" fill="#024566"/>
<path d="M654.5 692.6C665.5 789.3 681.9 813 681.9 813L340.9 721.8L359.1 472L505 411.8L603.5 451.9C603.5 451.9 646.5 621.4 654.5 692.6Z" fill="#052E47"/>
<path d="M654.5 692.6C654.5 692.6 646.4 557.1 636.3 462.9C630.5 408.9 607.1 247.7 607.1 247.7L598 264.1L488.6 338.9C488.6 338.9 438.9 372.1 421.3 381.2C333.6 426.4 298.7 431.7 255.2 433.7C233.8 434.7 169.5 433.7 169.5 433.7L151.4 376C145 412.7 149.4 441 149.4 441L160.4 464.7L144 484.8L169.5 563.2L158.5 632.5L94.7 716.3L133 765.6L198.7 787.4L282.5 802L351.8 822.1L437.5 833H565.2L681.9 813L670.1 798.9C647.808 772.037 630.808 741.193 620 708C616.283 696.565 613.802 684.764 612.6 672.8L605.8 605.1C605.652 603.402 605.115 601.762 604.23 600.305C603.346 598.848 602.138 597.615 600.7 596.7C593.2 592 578.6 582.9 572.5 579.6C546.5 565.3 466.1 527.3 466.1 527.3C464.635 526.589 463.399 525.481 462.533 524.102C461.667 522.723 461.205 521.128 461.2 519.5V490.5C461.199 490.233 461.253 489.968 461.361 489.724C461.469 489.479 461.627 489.26 461.825 489.08C462.023 488.901 462.257 488.766 462.511 488.683C462.765 488.6 463.034 488.572 463.3 488.6C485.6 491.2 507.3 496.9 528.4 504.6C574.3 521.2 608.6 535.4 608.6 535.4C610.333 536.109 611.843 537.273 612.969 538.77C614.096 540.266 614.797 542.038 615 543.9L626.6 658.2C626.926 661.632 628.366 664.863 630.7 667.4C636.5 673.8 654.5 692.6 654.5 692.6Z" fill="url(#paint0_linear_3_33)"/>
<path d="M681.9 813C681.9 813 373.7 743.7 450.3 621.5C455.8 612.7 447.9 606.8 431.3 603.2C359.5 587.3 125.7 612.4 125.7 612.4L206 813C206 813 375.7 860 512.3 847.6C632.6 836.7 681.9 813 681.9 813Z" fill="url(#paint1_linear_3_33)"/>
<path d="M681.9 813C681.9 813 301.5 779.6 379.2 577.8C397.4 530.3 107.5 603.3 107.5 603.3L206 813C206 813 375.7 860 512.3 847.6C632.6 836.7 681.9 813 681.9 813Z" fill="url(#paint2_linear_3_33)"/>
<path d="M681.9 813C681.9 813 265.2 832.7 308.1 543.1C315.4 493.9 103.8 574.1 103.8 574.1L206 813C206 813 368.4 861.9 505 849.4C625.3 838.5 681.9 813 681.9 813Z" fill="url(#paint3_linear_3_33)"/>
<mask id="mask0_3_33" style="mask-type:luminance" maskUnits="userSpaceOnUse" x="5" y="5" width="739" height="882">
<path d="M681.9 813C175 896.9 40 284.2 488.6 253.2V338.9L743.9 171.1L490.4 5.19995V90.8999C227.8 87.2999 16 233.3 5.39999 497.5C-3.70001 723.6 145.6 837 258.8 867.7C494.1 931.5 681.9 813 681.9 813Z" fill="white"/>
</mask>
<g mask="url(#mask0_3_33)">
<mask id="mask1_3_33" style="mask-type:luminance" maskUnits="userSpaceOnUse" x="0" y="0" width="749" height="892">
<path d="M748.9 0.199951H0V891.55H748.9V0.199951Z" fill="white"/>
</mask>
<g mask="url(#mask1_3_33)">
<rect width="749.28" height="891.84" fill="url(#paint4_linear_3_33)"/>
</g>
</g>
<path d="M534.9 813H522.3L516 824L522.3 834.9H534.9L541.2 824L534.9 813Z" fill="#D9F2FF"/>
<path d="M261.8 583.3H204.9L176.5 632.5L204.9 681.7H261.8L290.2 632.5L261.8 583.3Z" fill="#D9F2FF"/>
<path d="M185.4 510.3H145.4L125.4 545L145.4 579.6H185.4L205.5 545L185.4 510.3Z" fill="#D9F2FF"/>
<path d="M184.5 452H156.1L141.9 476.6L156.1 501.2H184.5L198.7 476.6L184.5 452Z" fill="#D9F2FF"/>
<path d="M336.3 650.7H294.2L273.1 687.2L294.2 723.7H336.3L357.4 687.2L336.3 650.7Z" fill="#D9F2FF"/>
<path d="M242.4 693H205.8L187.4 724.8L205.8 756.5H242.4L260.7 724.8L242.4 693Z" fill="#D9F2FF"/>
<path d="M335 754.3H315.9L306.3 770.9L315.9 787.5H335L344.6 770.9L335 754.3Z" fill="#D9F2FF"/>
<path d="M376.9 729.1H352.7L340.6 750.1L352.7 771.1H376.9L389 750.1L376.9 729.1Z" fill="#D9F2FF"/>
<path d="M423.4 754.7H394.9L380.7 779.3L394.9 803.9H423.4L437.6 779.3L423.4 754.7Z" fill="#D9F2FF"/>
<path d="M139 430.1H119L109 447.4L119 464.7H139L149 447.4L139 430.1Z" fill="#D9F2FF"/>
<path d="M504.6 792.6H485.4L475.9 809.2L485.4 825.8H504.6L514.2 809.2L504.6 792.6Z" fill="#D9F2FF"/>
<path d="M2584.47 751.042L2457.58 287H2514.68L2611.66 664.941H2616.19L2714.98 287H2778.42L2877.22 664.941H2881.75L2978.72 287H3035.82L2908.94 751.042H2850.93L2748.52 381.259H2744.89L2642.47 751.042H2584.47Z" fill="#3D7DAB"/>
<path d="M3060.37 751.042H3001.46L3171.85 287H3229.86L3400.25 751.042H3341.33L3202.67 360.413H3199.04L3060.37 751.042Z" fill="#3D7DAB"/>
<path d="M3400.25 287L3538.01 677.629H3543.45L3681.21 287H3740.12L3569.73 751.042H3511.73L3341.33 287H3400.25Z" fill="#3D7DAB"/>
<path d="M3791.32 751.042V519.021V287H4071.37V336.848H3847.51V493.644H4056.87V543.492H3847.51V701.194H4071.37V751.042H3791.32Z" fill="#3D7DAB"/>
<path d="M2584.47 751.042L2457.58 287H2514.68L2611.66 664.941H2616.19L2714.98 287H2778.42L2877.22 664.941H2881.75L2978.72 287H3035.82L2908.94 751.042H2850.93L2748.52 381.259H2744.89L2642.47 751.042H2584.47Z" fill="#3D7DAB"/>
<path d="M2363.38 287L2490.27 751.042L2433.17 751.042L2336.19 373.102L2331.66 373.102L2232.87 751.042L2169.43 751.042L2070.64 373.102L2066.1 373.102L1969.13 751.042L1912.03 751.042L2038.91 287L2096.92 287L2199.33 656.784L2202.96 656.784L2305.38 287L2363.38 287Z" fill="#224055"/>
<path d="M1637.19 701.194V287H1581V751.042L1849.2 751.076L1862.5 701.194H1637.19Z" fill="#224055"/>
<path fill-rule="evenodd" clip-rule="evenodd" d="M1256 751.042V287H1521.56V336.848H1312.19V493.644H1507V543.492H1312.19V701.194H1521.56V751.042H1256Z" fill="#224055"/>
<path d="M869.807 751.042V287H926V493.644H1140.62V287H1196.81V751.042H1140.62V543.492H926V751.042H869.807Z" fill="#224055"/>
</g>
<defs>
<linearGradient id="paint0_linear_3_33" x1="259.54" y1="761.71" x2="660.29" y2="335.1" gradientUnits="userSpaceOnUse">
<stop offset="0.33" stop-color="#8DD4FF"/>
<stop offset="0.34" stop-color="#89D1FE"/>
<stop offset="0.44" stop-color="#5BA9F0"/>
<stop offset="0.54" stop-color="#378AE5"/>
<stop offset="0.63" stop-color="#1D73DD"/>
<stop offset="0.71" stop-color="#0D66D8"/>
<stop offset="0.77" stop-color="#0861D6"/>
</linearGradient>
<linearGradient id="paint1_linear_3_33" x1="403.8" y1="856.19" x2="403.8" y2="604.37" gradientUnits="userSpaceOnUse">
<stop offset="0.16" stop-color="#8DD4FF"/>
<stop offset="0.79" stop-color="#0861D6"/>
</linearGradient>
<linearGradient id="paint2_linear_3_33" x1="394.68" y1="857.12" x2="394.68" y2="569.15" gradientUnits="userSpaceOnUse">
<stop offset="0.16" stop-color="#8DD4FF"/>
<stop offset="0.79" stop-color="#0861D6"/>
</linearGradient>
<linearGradient id="paint3_linear_3_33" x1="392.86" y1="859.81" x2="392.86" y2="535.47" gradientUnits="userSpaceOnUse">
<stop offset="0.16" stop-color="#8DD4FF"/>
<stop offset="0.81" stop-color="#3461CC"/>
</linearGradient>
<linearGradient id="paint4_linear_3_33" x1="531.5" y1="151.5" x2="479.5" y2="892" gradientUnits="userSpaceOnUse">
<stop stop-color="#6FBDFF"/>
<stop offset="1" stop-color="#00131F"/>
</linearGradient>
<clipPath id="clip0_3_33">
<rect width="4075" height="892" fill="white"/>
</clipPath>
</defs>
</svg>
